<?xml version="1.0" standalone="no"?>
<!DOCTYPE svg PUBLIC "-//W3C//DTD SVG 20010904//EN"
 "http://www.w3.org/TR/2001/REC-SVG-20010904/DTD/svg10.dtd">
<svg version="1.0" xmlns="http://www.w3.org/2000/svg"
 width="876.000000pt" height="876.000000pt" viewBox="0 0 876.000000 876.000000"
 preserveAspectRatio="xMidYMid meet">

<g transform="translate(0.000000,876.000000) scale(0.100000,-0.100000)"
fill="#000000" stroke="none">
<path d="M6631 8711 c-118 -41 -152 -87 -195 -267 -19 -76 -39 -166 -45 -198
-28 -155 4 -543 65 -775 30 -116 76 -215 192 -412 209 -358 250 -479 268 -782
7 -127 -9 -352 -32 -442 -20 -77 -75 -187 -130 -261 -104 -140 -438 -465 -521
-507 -16 -8 -48 -18 -73 -22 -25 -4 -69 -18 -99 -31 -79 -35 -83 -35 -325 40
-142 44 -312 76 -626 119 -261 35 -374 38 -550 11 -359 -54 -1017 -242 -1240
-354 -58 -29 -129 -93 -157 -141 -10 -16 -22 -29 -28 -29 -23 0 -142 -64 -226
-121 l-89 -61 -78 30 c-229 91 -487 182 -557 197 -97 21 -321 23 -413 5 -76
-15 -168 -61 -327 -162 -151 -96 -226 -163 -259 -231 l-27 -52 50 -3 49 -3 -5
-54 -6 -55 73 0 72 0 -7 -60 -7 -60 42 15 c53 19 50 19 50 -10 0 -24 0 -24
113 -27 l112 -3 24 -49 c32 -64 65 -78 202 -84 92 -4 110 -2 146 16 l40 21 22
-40 c19 -33 39 -48 113 -85 l90 -45 -7 85 c-4 47 -4 86 -1 86 12 0 64 -29 135
-75 68 -44 68 -45 80 -105 12 -61 27 -74 51 -45 7 8 16 15 20 15 4 0 15 -37
25 -82 l17 -81 19 24 c10 13 19 29 19 34 2 21 18 -32 25 -84 l7 -54 23 29 23
29 6 -45 c3 -25 8 -72 12 -105 l6 -60 35 75 35 75 22 -70 c32 -99 48 -126 109
-181 35 -32 76 -86 117 -154 l62 -105 -7 68 -7 68 89 -90 c104 -105 129 -115
319 -131 179 -14 183 -18 88 -67 -113 -58 -196 -75 -414 -82 -110 -4 -193 -11
-206 -18 -41 -24 -107 -106 -142 -180 -34 -73 -36 -81 -37 -192 -2 -146 16
-100 -400 -1026 -230 -512 -252 -551 -338 -604 -35 -21 -276 -106 -403 -141
-109 -30 -181 -62 -304 -133 -250 -144 -329 -204 -361 -272 -29 -63 -28 -65
58 -65 66 0 80 -3 101 -22 39 -37 95 -29 220 34 l107 53 155 1 c142 0 159 2
205 24 45 21 68 25 217 29 l167 6 35 34 c24 24 51 71 85 150 80 189 504 1165
569 1313 91 203 138 294 177 337 30 33 43 40 91 46 61 7 90 28 100 72 23 108
101 157 504 319 l245 98 260 -3 c143 -2 263 -5 267 -7 11 -7 93 -265 142 -451
51 -191 55 -238 30 -378 -19 -106 -14 -231 10 -290 36 -85 151 -175 258 -201
61 -15 71 -15 144 1 93 20 105 20 289 -1 250 -28 498 -84 875 -199 195 -60
262 -88 296 -127 41 -44 77 -131 90 -216 6 -45 19 -93 28 -106 21 -33 116 -67
204 -74 68 -4 76 -3 123 27 28 17 53 31 55 31 3 0 25 -13 48 -29 45 -32 138
-66 203 -77 35 -5 43 -3 65 20 l24 26 22 -29 c22 -30 28 -32 131 -46 l44 -6
-7 73 c-13 143 -65 201 -276 308 -145 74 -180 99 -180 131 0 55 -53 105 -139
130 -54 16 -97 58 -113 111 -6 22 -33 64 -59 92 -87 95 -170 121 -454 141
-288 20 -483 52 -822 136 -207 50 -209 51 -230 95 -28 58 -63 78 -144 82 -69
4 -70 4 -85 41 -25 57 -61 206 -78 324 -16 109 -23 466 -10 559 6 40 10 46 52
69 26 13 75 41 111 63 l64 38 86 -12 c118 -17 241 -2 324 40 72 36 76 36 122
8 52 -30 204 -37 294 -13 128 33 254 114 349 223 164 191 297 437 358 668 50
186 16 348 -128 623 -82 156 -84 135 25 279 274 362 420 651 508 1002 23 90
24 111 23 405 0 457 -8 485 -268 996 -282 554 -338 753 -266 944 29 76 111
159 173 175 70 18 85 27 123 80 l36 50 76 0 c122 0 193 15 220 46 21 23 21 29
9 48 -19 29 -72 53 -175 77 -111 26 -136 39 -140 69 -5 34 -16 45 -102 103
-127 87 -226 107 -339 68z"/>
</g>
</svg>
